<?xml version="1.0" encoding="utf-8"?>
<!-- Generator: Adobe Illustrator 26.1.0, SVG Export Plug-In . SVG Version: 6.00 Build 0)  -->
<svg version="1.1" id="Layer_1" xmlns="http://www.w3.org/2000/svg" xmlns:xlink="http://www.w3.org/1999/xlink" x="0px" y="0px"
	 viewBox="0 0 32 32" style="enable-background:new 0 0 32 32;" xml:space="preserve">
<style type="text/css">
	.st0{fill:#FFFFFF;}
</style>
<path class="st0" d="M7,2C4.3,2,2,4.3,2,7v16c0,2.7,2.3,5,5,5h16c2.7,0,5-2.3,5-5V7c0-2.7-2.3-5-5-5H7z M7,4h16c1.7,0,3,1.3,3,3v16
	c0,1.7-1.3,3-3,3h-3.2v-8.1h2.8l0.4-3.2h-3.2v-2.1c0-0.9,0.3-1.6,1.6-1.6h1.7V8.2c-0.3,0-1.3-0.1-2.5-0.1c-2.5,0-4.2,1.5-4.2,4.2
	v2.4l-2.5,0v3.2l2.5,0V26H7c-1.7,0-3-1.3-3-3V7C4,5.3,5.3,4,7,4z"/>
</svg>
