<?xml version="1.0" encoding="utf-8"?>
<!-- Generator: Adobe Illustrator 26.1.0, SVG Export Plug-In . SVG Version: 6.00 Build 0)  -->
<svg version="1.1" id="Layer_1" xmlns="http://www.w3.org/2000/svg" xmlns:xlink="http://www.w3.org/1999/xlink" x="0px" y="0px"
	 viewBox="0 0 32 32" style="enable-background:new 0 0 32 32;" xml:space="preserve">
<style type="text/css">
	.st0{fill:#FFFFFF;}
</style>
<path class="st0" d="M9.5,2C5.4,2,2,5.4,2,9.5v10.9C2,24.6,5.4,28,9.5,28h10.9c4.1,0,7.5-3.4,7.5-7.5V9.5C28,5.4,24.6,2,20.5,2H9.5z
	 M9.5,4h10.9C23.5,4,26,6.5,26,9.5v10.9c0,3.1-2.5,5.5-5.5,5.5H9.5C6.5,26,4,23.5,4,20.5V9.5C4,6.5,6.5,4,9.5,4z M23,6
	c-0.6,0-1,0.4-1,1s0.4,1,1,1s1-0.4,1-1S23.6,6,23,6z M15,8c-3.9,0-7,3.1-7,7s3.1,7,7,7s7-3.1,7-7S18.9,8,15,8z M15,10
	c2.8,0,5,2.2,5,5s-2.2,5-5,5s-5-2.2-5-5S12.2,10,15,10z"/>
</svg>
