<svg xmlns="http://www.w3.org/2000/svg" viewBox="0 0 503.36 251.39"><defs><style>.cls-1{fill:none;}.cls-2{fill:#ead772;}.cls-3{fill:#c0cdd5;}.cls-4{fill:#d6dbcc;}.cls-5{fill:#fff;}.cls-6{fill:#f7d3c6;}</style></defs><title>Asset 2</title><g id="Layer_2" data-name="Layer 2"><g id="Warstwa_1" data-name="Warstwa 1"><path class="cls-1" d="M383.61,153.59a11.58,11.58,0,0,0,5.66,3.67q-4.33-7.5-9.27-14.57Q380.3,149.59,383.61,153.59Z"/><path class="cls-1" d="M137.85,114.74q-12.85,0-18.11,14.31h29.65a12.33,12.33,0,0,0,.14-1.89,12.88,12.88,0,0,0-3.14-8.91A10.87,10.87,0,0,0,137.85,114.74Z"/><path class="cls-1" d="M243.86,92.68c-6-.42-6.85,4.22-7.31,8.89-.08.79-.18,1.58-.26,2.37h9l-7,40.45a21,21,0,0,0-.44,4.23q0,9.06,9.78,9.06a15.4,15.4,0,0,0,9.13-3.22,20.22,20.22,0,0,0,6.64-7.88l7.45-42.64h14.6l-11.39,64.83h-14.6l1.17-6.13a25.61,25.61,0,0,1-18.84,7.59c-5.39,0-9.69-1.46-12.91-4.34-1.07,15.38-2.16,30.75-3.11,46.14-.47,7.65.75,9.33,8.27,9.7,9.49.45,19.11,1,28.51-.06,16.19-1.76,30-8.68,40.5-21.69,14.18-17.54,16.45-37.95,14.23-59.17a51.52,51.52,0,0,0-3-13.08l-7.19,41h-14.6l10.13-57.65a47.24,47.24,0,0,0-6.25-4.53C280.08,96.67,262.22,94,243.86,92.68Z"/><path class="cls-1" d="M411.8,127.16a12.88,12.88,0,0,0-3.14-8.91,10.91,10.91,0,0,0-8.55-3.51,19.91,19.91,0,0,0-4.31.46c1.27,1.39,2.55,2.78,3.84,4.14a117.57,117.57,0,0,1,8.23,9.71h3.78A11.14,11.14,0,0,0,411.8,127.16Z"/><path class="cls-2" d="M429.88,190.65c1.1,18.1-7.05,30.88-23.35,38.67-13.17,6.3-32,4.19-42.86-7.35-7.57-8.06-13.92-17.89-15.24-29.65-.48-4.27,1.32-7.09,6-7.31,3-.13,5.86-.35,8.77-.57,10.4-.75,10.57-.84,14.93,8.37,2.47,5.11,5.69,8.41,11.68,8.23,6.78-.22,10.17-3.12,10.48-10A46.71,46.71,0,0,0,396,170.17c-.93-2.16-2-4.32-3.08-6.44s-2.38-4.31-3.62-6.47a17.36,17.36,0,0,0,5.16.7c7.22,0,12-3.12,14.45-9.33h10.74c.75,1.58,1.46,3.17,2.07,4.8A116.56,116.56,0,0,1,429.88,190.65Z"/><path class="cls-3" d="M172,232.58c-10.33-15-20.81-30-30.95-45.14-1.51-2.26-5.86-9.08-11-17.23-9.84-15.47-22.66-35.73-24.69-38.58l-.66-.92c-2.66-3.71-5.35-7.4-8-11.09.29-.18.6-.35.92-.52,16.78-8.92,33.31-18.36,50.14-27.21,14.71-7.72,16.67-9.66,9.09-25-4.93-10-6.37-11-16.14-5.56C127.45,68.74,114,75.64,100.78,82.9a8.93,8.93,0,0,1,.12,1.47,8.45,8.45,0,0,1-2.7,6.28,9,9,0,0,1-12.7,0,8.65,8.65,0,0,1,0-12.56,9.41,9.41,0,0,1,.84-.72c-.61-4.38-1.15-8.62-1.45-12.87-1.25-18.2-2.07-36.43-3.1-54.66-.26-4.54-3.12-6.68-7.28-6.44A89,89,0,0,0,57.16,5.7c-1.85.49-4.19,4.34-4,6.5,1.09,15.08,1.67,30.19,2.38,45.3s1.61,30.31,3.35,45.43c0,.34.07.68.11,1H70.09l-10.24,8.8c.18,2,.36,4,.51,6,1.32,17.31,1.77,34.71,2.83,52,1,16.76,2.11,33.5,3,50.26.23,4.13,2.29,6.22,6.12,6.1,5.85-.18,11.68-.84,17.52-1.32,5.68-.46,7.27-3.78,6.77-9.05C95,200,93.31,183.32,92.12,166.58c0-.52-.07-1.05-.1-1.57,1.68,2.61,3.34,5.26,4.94,7.94,15.7,26,34.19,50.05,50.93,75.3,1.21,1.8,5.41,3.43,7.17,2.68a89.26,89.26,0,0,0,15.13-8.8C173.63,239.79,174.59,236.35,172,232.58Zm-87.75-63.8H69.65L81,103.94H95.65Z"/><path class="cls-4" d="M185.28,72.84c8.82-3,8.43-9.54,6.43-14.38a63.86,63.86,0,0,0-2.78-6.16,53.94,53.94,0,0,0-2.87-4.58,10.42,10.42,0,0,0-13.38-3.31h0c-14.71,7.72-16,11.08-8.4,26.41C169.2,80.82,175.89,76.06,185.28,72.84Z"/><path class="cls-4" d="M171,168.78l11.39-64.84h9.11c.05-3.32-.05-7.9-2.86-8.4-3.89-.69-16.93-1.5-21.49-.57-5.55,1.13-4.45,7.15-4.55,12.82-.06,3.45-.13,7.53-.21,11.61a34.82,34.82,0,0,1,1.16,9.22,62.46,62.46,0,0,1-1.31,11.1H162c-.3,15.35-.71,36.52-.92,47.13-.08,4.14.59,10.71,4.28,12.37,8.28,3.73,24.71,3.17,24.79-6.22q.38-27.56.82-55.11l-5.38,30.89Z"/><path class="cls-5" d="M50.67,103.94,21.32,130.37l9.93-56.51H16.65L0,168.78H14.6l3.8-21.62,7.3-6.28,17.67,27.9H59.73L37,132.41l22.9-19.67q-.39-4.41-.88-8.8Z"/><path class="cls-5" d="M59,103.94q.49,4.4.88,8.8l10.25-8.8Z"/><path class="cls-5" d="M96.49,85.26c1.43-.8,2.86-1.58,4.29-2.36a8.5,8.5,0,0,0-2.58-4.81,8.82,8.82,0,0,0-6.35-2.63,8.69,8.69,0,0,0-5.51,1.9c.51,3.71,1.07,7.51,1.58,11.52C91.89,87.22,94.31,86.48,96.49,85.26Z"/><path class="cls-5" d="M82.8,84.37a8.46,8.46,0,0,0,2.7,6.28,9,9,0,0,0,12.7,0,8.44,8.44,0,0,0,2.71-6.28,8.83,8.83,0,0,0-.13-1.47c-1.43.78-2.86,1.56-4.29,2.36-2.18,1.22-4.6,2-8.57,3.62-.51-4-1.07-7.81-1.58-11.52-.29.23-.57.47-.84.73A8.46,8.46,0,0,0,82.8,84.37Z"/><polygon class="cls-5" points="69.66 168.78 84.26 168.78 95.65 103.94 81.05 103.94 69.66 168.78"/><path class="cls-5" d="M162.39,119.4a23.19,23.19,0,0,0-5.34-9.91q-6.5-7-18.62-7a31.36,31.36,0,0,0-25.26,11.75,41.45,41.45,0,0,0-8.5,16.48c.22.31.45.61.66.92,2,2.85,14.85,23.11,24.69,38.58l1.26,0q11.24,0,19.2-5.91a28.72,28.72,0,0,0,10.73-15.7h-14.6Q143,158,132.15,158q-7.16,0-10.8-4.38t-3.65-12.27v-1.6H162c0-2.1.08-4.09.11-5.93C162.2,129.87,162.3,124.63,162.39,119.4Zm-13,9.65H119.74q5.27-14.3,18.11-14.31a10.87,10.87,0,0,1,8.54,3.51,12.88,12.88,0,0,1,3.14,8.91A12.33,12.33,0,0,1,149.39,129.05Z"/><path class="cls-5" d="M163.55,128.62a34.82,34.82,0,0,0-1.16-9.22c-.09,5.23-.19,10.47-.27,14.39,0,1.84-.07,3.83-.11,5.92h.23A62.27,62.27,0,0,0,163.55,128.62Z"/><path class="cls-5" d="M202.69,104.74a18.22,18.22,0,0,0-6.87,5.92l1.17-6.72h-5.48c0,.47,0,.92,0,1.33-.06,4.12-.09,6.24-.14,9.76L191,137.89l1.92-11a15.92,15.92,0,0,1,6.14-7.74,16.12,16.12,0,0,1,7-2.52q.65-6.8,1.28-13.59A20.43,20.43,0,0,0,202.69,104.74Z"/><path class="cls-5" d="M216,118.69l2.62-15c-1.17-.78-3.45-1.17-6.86-1.17a19,19,0,0,0-4.45.53q-.64,6.8-1.28,13.59a17.57,17.57,0,0,1,1.79-.1C211.4,116.5,214.12,117.23,216,118.69Z"/><path class="cls-5" d="M191.48,105.27c0-.41,0-.86,0-1.33h-9.11L171,168.77h14.6L191,137.89l.36-22.86C191.39,111.52,191.42,109.39,191.48,105.27Z"/><path class="cls-5" d="M260.66,162.64l-1.17,6.14h14.6l11.39-64.84h-14.6l-7.45,42.64a20.24,20.24,0,0,1-6.64,7.89,15.45,15.45,0,0,1-9.13,3.21q-9.78,0-9.78-9.06a21,21,0,0,1,.44-4.23l7-40.45h-9c-1.88,17.79-5,35.49-6.78,53.28h0q-.28,4.34-.6,8.67c3.23,2.89,7.52,4.34,12.91,4.34A25.58,25.58,0,0,0,260.66,162.64Z"/><path class="cls-5" d="M229.45,157.22h0Z"/><path class="cls-5" d="M229.43,157.21Z"/><path class="cls-5" d="M229.61,157.23Z"/><path class="cls-6" d="M345.6,168.78a128.82,128.82,0,0,1-13,39.16c-2.14,4.24-4.21,9.93-6.42,12.72-5,6.34-16.62,13.91-26.19,19-18.63,9.94-38.9,12.41-59.62,11.57-12.43-.5-24.84-1.8-37.23-2.91-9-.81-9.88-1.65-9-11,2.62-27.7,5.58-55.37,8.28-83.06q1.83-18.82,3.56-37.65a15.09,15.09,0,0,1,1.79-.11q5.4,0,8.17,2.19l2.63-15q-1.75-1.17-6.86-1.17a19,19,0,0,0-4.45.53q1.19-12.65,2.42-25.3c.27-2.75,1.08-7.48,1.75-11.17a6,6,0,0,1,6.38-4.85c9.38.84,28.89,2.7,41.36,4.66,3,.47,25,3,33,5.46,12.37,3.85,31.16,14.23,41.43,30.77a23.32,23.32,0,0,0-16.31,7.79l1.17-6.43h-14.6l-1.26,7.18a48.16,48.16,0,0,0-6.25-4.53C280.08,96.68,262.21,94,243.86,92.68c-6-.42-6.85,4.23-7.32,8.89-.07.79-.17,1.58-.25,2.37-1.88,17.79-5,35.49-6.78,53.28l-.6,8.67c-1.07,15.38-2.16,30.76-3.11,46.14-.47,7.65.75,9.34,8.27,9.7,9.49.46,19.11,1,28.51-.06,16.19-1.75,30-8.67,40.5-21.68,14.18-17.54,16.45-38,14.23-59.18a52.37,52.37,0,0,0-3-13.08l.25-1.45a17.3,17.3,0,0,1,6.43-7.59,16.07,16.07,0,0,1,9-2.92q10.22,0,10.22,9.35a21.33,21.33,0,0,1-.44,3.94l-6.86,39.72Z"/><path class="cls-5" d="M229.61,157.23h0Z"/><path class="cls-5" d="M229.51,157.22Z"/><path class="cls-5" d="M307.09,168.78l7.2-41a40.55,40.55,0,0,0-11.67-16.61l-10.13,57.66Z"/><path class="cls-5" d="M354.85,126.57a30.34,30.34,0,0,0,.43-5q0-8.48-5-13.8t-14.09-5.33c-.86,0-1.7,0-2.53.1a51.17,51.17,0,0,1,3.31,6.21c9.07,20.4,11.62,40.32,8.67,60h1.94Z"/><path class="cls-5" d="M336.93,108.79a51.17,51.17,0,0,0-3.31-6.21,23.29,23.29,0,0,0-16.3,7.78l1.16-6.42h-14.6l-1.26,7.18a40.55,40.55,0,0,1,11.67,16.61l.25-1.45a17.36,17.36,0,0,1,6.43-7.59,16.07,16.07,0,0,1,9-2.92q10.22,0,10.22,9.34a22.11,22.11,0,0,1-.43,4l-6.87,39.72H345.6C348.55,149.11,346,129.19,336.93,108.79Z"/><path class="cls-5" d="M389.27,157.26a11.58,11.58,0,0,1-5.66-3.67q-3.32-4-3.61-10.9c-3.74-5.39-7.72-10.62-11.92-15.75a42.12,42.12,0,0,0-2.43,14.38q0,13.14,7.45,21t20.44,7.88c.82,0,1.63,0,2.43-.08-.94-2.16-2-4.29-3.09-6.39S390.51,159.4,389.27,157.26Z"/><path class="cls-5" d="M400.11,114.74a10.9,10.9,0,0,1,8.55,3.51,12.88,12.88,0,0,1,3.14,8.91,11.14,11.14,0,0,1-.15,1.89h-3.78a108.41,108.41,0,0,1,7.1,10.66h9.53a61.51,61.51,0,0,0,1.32-11.09q0-12.12-6.5-19.13t-18.62-7a33.13,33.13,0,0,0-13.49,2.69c2.73,3.45,5.62,6.78,8.59,10A19.91,19.91,0,0,1,400.11,114.74Z"/><path class="cls-5" d="M423.48,148.62h-3.86c.73,1.58,1.43,3.18,2.08,4.79A32.84,32.84,0,0,0,423.48,148.62Z"/><path class="cls-2" d="M436.44,72.29c-.75.09-1.5,0-2.2.13-15.29,2.86-16.3-.75-17.93-12.64-1.76-13-7.58-24.67-22.73-27.8-17.13-3.57-29.12,6.39-28,23.75,1.05,15.46,7.57,29.07,15.94,41.62,1.76,2.69,3.7,5.29,5.68,7.84,2.73,3.44,5.64,6.74,8.59,10-6.3,1.41-10.88,6-13.79,13.88h25.86A104.26,104.26,0,0,1,415,139.73H380v1.58c0,.49,0,.93,0,1.37-3.74-5.38-7.75-10.62-11.93-15.73-1.68-2.07-3.4-4.14-5.16-6.16-14.4-16.61-26.52-35.51-28.76-58.24-2.87-29,16.25-64,56.07-62.5,20.22.75,46.34,19.42,50.53,38.32,1.23,5.73,3.08,11.36,4.09,15.15.09.49.31,1.37.4,1.85.27,1.06.53,2.87.75,4.32C447.54,69.91,446.62,71.1,436.44,72.29Z"/><polygon class="cls-5" points="503.36 103.94 483.93 103.94 454.58 130.37 464.51 73.86 449.91 73.86 433.26 168.78 447.86 168.78 451.66 147.16 458.96 140.88 476.63 168.78 492.99 168.78 470.21 132.41 503.36 103.94"/></g></g></svg>