<svg xmlns="http://www.w3.org/2000/svg" viewBox="0 0 825.4 148.31"><defs><style>.cls-1{fill:#231f20;}</style></defs><title>Asset 2</title><g id="Layer_2" data-name="Layer 2"><g id="Layer_1-2" data-name="Layer 1"><path class="cls-1" d="M20.4,0h23L30.3,92.9,71.9,54h29.2L55.7,95.8,90.8,146H60.2L30.1,99h-.4l-6.5,47H0Z"/><path class="cls-1" d="M116.7,53h23l-12.8,92h-23Zm1.1-31a15.44,15.44,0,0,1,5.5-9.7,16.08,16.08,0,0,1,11.1-4.1,13.48,13.48,0,0,1,10.2,4,10.67,10.67,0,0,1,2.9,9.9,15.86,15.86,0,0,1-5.8,9.9,16.83,16.83,0,0,1-11.2,3.9,12.6,12.6,0,0,1-9.9-4.1,12.07,12.07,0,0,1-2.8-9.8Z"/><path class="cls-1" d="M177.1,107.9a21.18,21.18,0,0,0,1.5,9.3,19.71,19.71,0,0,0,4.5,6.8,19.11,19.11,0,0,0,6.9,4.3,24.06,24.06,0,0,0,8.8,1.6,30.35,30.35,0,0,0,15.1-3.6,47.68,47.68,0,0,0,11.5-9l14.8,12.5c-6.3,6.7-12.9,11.4-20,14.2a56.88,56.88,0,0,1-21.5,4.3,50.28,50.28,0,0,1-19.2-3.5,38.42,38.42,0,0,1-14.6-9.8,39.36,39.36,0,0,1-8.6-15.3,46.18,46.18,0,0,1-1.1-19.9,53.93,53.93,0,0,1,6.7-19.9,55.63,55.63,0,0,1,12.9-15.3,56.54,56.54,0,0,1,17.4-9.8,60.31,60.31,0,0,1,20.1-3.5c13,0,22.8,4.3,29.5,13s8.9,21.1,6.7,37.3l-1,6.4Zm49.9-18c.9-6.8-.4-12.2-4-16.1s-9-5.9-16.4-5.9c-6.9,0-12.7,2-17.3,6a30.8,30.8,0,0,0-9.6,16Z"/><path class="cls-1" d="M276.8,53H300l-2.2,15h.6a35.92,35.92,0,0,1,12.7-12.4,34,34,0,0,1,16.8-4.4,18.1,18.1,0,0,1,4,.4c1.3.3,2.6.6,4,1l-3.2,22a38.77,38.77,0,0,0-4.9-1.1,28.8,28.8,0,0,0-5.9-.6c-5.3,0-9.8,1-13.3,3a29.32,29.32,0,0,0-8.5,6.8,25.46,25.46,0,0,0-4.5,7.6,28.17,28.17,0,0,0-1.5,5.7l-6.9,49H264Z"/><path class="cls-1" d="M423.1,145H401.3l1.8-14h-.2a38.29,38.29,0,0,1-11.6,12.1q-7.5,5.1-19.2,5.1c-6.2,0-11.3-1-15.4-3a23.06,23.06,0,0,1-9.4-8.1,28.91,28.91,0,0,1-4.2-11.7,48.35,48.35,0,0,1,.1-13.7l8.3-58.6h23.3l-6.5,46.6c-.4,2.6-.7,5.4-.9,8.5a26.09,26.09,0,0,0,.8,8.8,13.86,13.86,0,0,0,4,6.9c2,1.9,5,2.8,9.1,2.8a24.71,24.71,0,0,0,10-1.9,21.77,21.77,0,0,0,7.2-5.2,26.69,26.69,0,0,0,4.8-7.5,33.79,33.79,0,0,0,2.4-8.8l7.1-50.2h23Z"/><path class="cls-1" d="M462.3,53h21.9l-2.1,15h.6a39.07,39.07,0,0,1,11.7-11.9c5-3.4,11.2-5.1,18.9-5.1,6.1,0,11.2,1,15.2,3.1a24.73,24.73,0,0,1,9.3,8,26.4,26.4,0,0,1,4,11.5,56.27,56.27,0,0,1-.2,13.6l-8,57.9H510.5L517,98.5a81.4,81.4,0,0,0,.8-8.5,29,29,0,0,0-.9-8.8,13.91,13.91,0,0,0-4.1-6.9c-2.1-1.9-5.1-2.8-9-2.8a24.71,24.71,0,0,0-10,1.9,21.77,21.77,0,0,0-7.2,5.2,26.69,26.69,0,0,0-4.8,7.5,33.79,33.79,0,0,0-2.4,8.8l-6.9,50.2h-23Z"/><path class="cls-1" d="M583.5,107.9a21.18,21.18,0,0,0,1.5,9.3,18.39,18.39,0,0,0,4.5,6.8,19.11,19.11,0,0,0,6.9,4.3,24.06,24.06,0,0,0,8.8,1.6,30.35,30.35,0,0,0,15.1-3.6,47.68,47.68,0,0,0,11.5-9l14.8,12.6c-6.3,6.7-13,11.4-20,14.2a56.91,56.91,0,0,1-21.6,4.2,50.63,50.63,0,0,1-19.2-3.5,38.42,38.42,0,0,1-14.6-9.8,39.58,39.58,0,0,1-8.7-15.3,47.82,47.82,0,0,1-1.2-19.9A53.93,53.93,0,0,1,568,79.9a55.63,55.63,0,0,1,12.9-15.3,56.54,56.54,0,0,1,17.4-9.8,60.31,60.31,0,0,1,20.1-3.5c13,0,22.8,4.3,29.5,13s8.9,21.1,6.7,37.3l-1,6.4Zm49.9-18c.9-6.8-.4-12.2-4-16.1s-9-5.9-16.3-5.9c-6.9,0-12.7,2-17.3,6a30.8,30.8,0,0,0-9.6,16Z"/><polygon class="cls-1" points="822.4 107 734.3 106.9 761.5 146 730.5 146 700.4 99 700 99 693.5 146 670.3 146 690.8 0 713.9 0 701 91.1 741.9 53 771.7 53 736.9 85 825.4 85 822.4 107"/></g></g></svg>