<?xml version="1.0" encoding="UTF-8"?>
<svg id="Layer_2" data-name="Layer 2" xmlns="http://www.w3.org/2000/svg" viewBox="0 0 190.31 77.1">
  <defs>
    <style>
      .cls-1 {
        fill: #231f20;
      }
    </style>
  </defs>
  <g id="Warstwa_1" data-name="Warstwa 1">
    <g>
      <polygon class="cls-1" points="17.33 13.02 7.3 22.4 10.46 0 4.92 0 0 35.2 5.59 35.2 7.16 23.87 7.26 23.87 14.51 35.2 21.89 35.2 13.43 23.1 24.37 13.02 17.33 13.02"/>
      <path class="cls-1" d="m35.1,3.18c-.61-.61-1.44-.97-2.3-.97-.05,0-.11,0-.16,0-.03,0-.06,0-.09,0-.96,0-1.88.36-2.58.99-.72.58-1.18,1.42-1.33,2.34-.14.84.12,1.71.67,2.36.57.64,1.37.99,2.22.99.05,0,.11,0,.16,0,.03,0,.07,0,.1,0,.95,0,1.88-.34,2.6-.94.75-.6,1.25-1.45,1.4-2.39.19-.87-.07-1.76-.7-2.39Z"/>
      <polygon class="cls-1" points="25.29 35.2 30.83 35.2 33.92 13.02 28.37 13.02 25.29 35.2"/>
      <path class="cls-1" d="m41.73,34.91c.62.24,1.25.42,1.9.56,2.16-1.41,4.69-2.25,7.33-2.25h.2c.76.01,1.45.25,2.06.65,1.09-.66,2.14-1.5,3.16-2.58l-3.57-3.01c-.82.87-1.74,1.59-2.77,2.17-1.07.58-2.27.87-3.49.87-.05,0-.1,0-.15,0-.72,0-1.45-.12-2.12-.39-.63-.22-1.18-.58-1.66-1.04-.48-.46-.84-1.01-1.08-1.64-.29-.72-.41-1.47-.36-2.24l16.97.02.24-1.54c.53-3.91,0-6.89-1.62-8.99-1.62-2.1-3.98-3.13-7.11-3.13-1.66,0-3.3.29-4.85.84-1.52.53-2.94,1.33-4.19,2.36s-2.31,2.29-3.11,3.69c-.84,1.47-1.4,3.11-1.62,4.8-.27,1.59-.17,3.23.27,4.8.41,1.37,1.11,2.63,2.07,3.69.96,1.06,2.17,1.86,3.52,2.36Zm2.36-17.09c1.11-.96,2.51-1.45,4.17-1.45,1.78,0,3.09.48,3.95,1.42.87.94,1.18,2.24.96,3.88h-11.4c.36-1.49,1.16-2.84,2.31-3.86Z"/>
      <path class="cls-1" d="m66.14,33.83l1.51-10.69c.07-.46.19-.94.36-1.37.24-.67.63-1.3,1.08-1.83.58-.68,1.28-1.23,2.05-1.64.84-.48,1.93-.72,3.21-.72.48,0,.96.05,1.42.14.41.07.8.14,1.18.27l.77-5.3c-.34-.1-.65-.17-.96-.24-.31-.07-.65-.1-.96-.1-1.42,0-2.82.36-4.05,1.06-1.25.72-2.31,1.76-3.06,2.99h-.14l.53-3.62h-5.59l-3.09,22.18h3.21c.8-.45,1.65-.82,2.54-1.12Z"/>
      <path class="cls-1" d="m80.42,33.05c.55.84,1.35,1.52,2.27,1.95.99.48,2.22.72,3.71.72,1.88,0,3.42-.41,4.63-1.23,1.13-.75,2.1-1.76,2.8-2.92h.05l-.42,3.28c1.47-1.07,2.71-1.72,3.61-1.76h.09c.62,0,1.22.18,1.73.48l2.87-20.78h-5.54l-1.71,12.1c-.1.72-.29,1.45-.58,2.12-.29.65-.67,1.28-1.16,1.81-.48.53-1.08.96-1.74,1.25-.72.29-1.49.46-2.26.46-.05,0-.1,0-.15,0-.99,0-1.71-.22-2.19-.67-.48-.46-.82-1.04-.96-1.66-.19-.7-.24-1.4-.19-2.12.05-.75.12-1.42.22-2.05l1.57-11.23h-5.62l-2,14.13c-.17,1.08-.17,2.19-.02,3.3.12,1.01.48,1.95,1.01,2.82Z"/>
      <path class="cls-1" d="m119.34,26.58c-.11.18-.22.36-.33.53l-.65,4.65-.09.66-.09.68-.22,1.54-.05.34h5.57l.99-7.17.11-.8.11-.82.33-2.38.14-1.03.13-.96.11-.8c.13-.98.15-1.98.06-2.96-1.26,1.38-3.2,3.89-6.13,8.52Z"/>
      <path class="cls-1" d="m110.41,22.88c.1-.72.29-1.45.58-2.12.29-.65.67-1.28,1.16-1.81.48-.53,1.08-.96,1.74-1.25.72-.29,1.49-.46,2.26-.46.05,0,.1,0,.15,0,.94,0,1.66.22,2.17.67.31.28.55.62.73.99,1.81-2.09,3.48-3.52,5.01-4.29-.54-.66-1.2-1.2-1.96-1.57-.96-.51-2.19-.75-3.66-.75-1.86,0-3.35.41-4.56,1.23-1.13.75-2.1,1.71-2.82,2.87h-.14l.51-3.62h-5.28l-3.09,22.2h5.54l1.66-12.1Z"/>
      <path class="cls-1" d="m142.24,12.39c-1.66,0-3.28.29-4.85.84-1.52.53-2.94,1.33-4.19,2.36s-2.31,2.29-3.11,3.69c-.84,1.47-1.4,3.11-1.62,4.8-.24,1.59-.14,3.23.29,4.8.41,1.37,1.13,2.63,2.1,3.69.96,1.06,2.17,1.86,3.52,2.36,1.41.56,2.92.85,4.45.85.06,0,.12,0,.18,0,1.78,0,3.54-.34,5.21-1.01,1.69-.68,3.3-1.81,4.82-3.42l-3.57-3.04c-.8.87-1.74,1.59-2.77,2.17-1.07.58-2.27.87-3.49.87-.05,0-.1,0-.15,0-.72,0-1.45-.12-2.12-.39-.63-.22-1.18-.58-1.66-1.04-.48-.46-.84-1.01-1.08-1.64-.29-.72-.41-1.47-.36-2.24l16.9.02.24-1.54c.53-3.91,0-6.89-1.62-8.99-1.62-2.1-3.98-3.13-7.11-3.13Zm3.62,9.31h-11.38c.36-1.49,1.16-2.84,2.31-3.86,1.11-.96,2.51-1.45,4.17-1.45,1.76,0,3.06.48,3.93,1.42.87.94,1.18,2.24.96,3.88Z"/>
      <polygon class="cls-1" points="190.31 20.52 168.97 20.52 177.36 12.8 170.18 12.8 160.32 21.99 163.43 .02 157.86 .02 152.92 35.22 158.51 35.22 160.08 23.89 160.17 23.89 167.43 35.22 174.9 35.22 168.34 25.8 189.58 25.82 190.31 20.52"/>
      <path class="cls-1" d="m125.65,24.72c1.93-3.07,3.35-6.1,3.38-8.35.02-1.01-.39-1.66-2.22-1.69-.02,0-.04,0-.06,0-.46,0-.94.1-1.43.26-.12.04-.24.09-.35.13-.11.05-.23.1-.34.15-1.63.78-3.37,2.37-5.16,4.49-.1.12-.21.24-.31.37-.1.13-.21.26-.31.39-3.22,4.01-6.52,9.61-9.44,15.15-.02.04-.04.07-.06.11-1.65,3.13-3.18,6.23-4.5,9.01-3.41,3.74-7.57,7.83-10.37,7.83-.01,0-.03,0-.04,0-2.84-.04,4.86-9.87,5.2-16.25.02-.41-.07-.79-.23-1.12-.08-.17-.19-.33-.31-.48-.1-.12-.21-.22-.33-.32-.43-.34-.99-.55-1.62-.55-.02,0-.05,0-.07,0-.61.02-1.47.44-2.47,1.1-.18.12-.36.24-.54.37-.17.12-.33.24-.51.38-4.96,3.78-12.37,12.1-13.67,13.09,1.77-3.64,7.11-12.13,2.2-12.21-1.73.35-3.96,1.24-6.06,1.24-1.21,0-2.38-.29-3.4-1.15-.14-.12-.35-.18-.57-.18-.75,0-1.62.67-.4,1.7,1.17,4.63-5.91,15.11-10.12,15.17,0,0-.01,0-.02,0-3.86,0,3.72-18.06,10.33-18.06,0,0,.02,0,.02,0,.89.01,1.46.85,2.29.86,0,0,0,0,.01,0,.23,0,.29-.12.29-.29.02-1.18-1.86-2.04-3.1-2.06-.18,0-.35,0-.53,0-1.42,0-2.76.21-4.03.59-.13.04-.26.09-.4.13-.13.04-.27.08-.4.13-.26.09-.51.2-.76.31-.28.12-.55.24-.81.37-.24.12-.47.24-.7.38-3.55,2.04-6.11,5.48-7.13,9.12-3.44,3.43-7.83,7.12-11.92,7.56-.1,0-.19,0-.28,0-1.72,0-2.13-.79-2.1-2.59.05-3.17,2.33-10.24,5.62-13.4.17-.16.34-.32.51-.46.24-.19.48-.36.72-.51.66-.4,1.35-.63,2.07-.63,0,0,0,0,0,0,.19,0,.39.02.58.05.06.01.11.03.16.05.18.04.35.1.5.18.41.22.69.58.68,1.21-.03,1.95-2.41,3.04-2.44,4.99,0,.47.22,1.13.99,1.14,0,0,0,0,.01,0,1.3,0,2.7-3.33,2.72-4.45.02-1.21-.42-2.44-1.27-3.22-.1-.1-.22-.17-.34-.25-.12-.09-.25-.17-.39-.23-.39-.19-.82-.31-1.32-.32-.06,0-.13,0-.19,0-2.25,0-4.36.63-6.21,1.69-.17.1-.32.21-.49.31-.16.1-.33.2-.49.31-3.51,2.44-5.84,6.47-5.91,10.5-.05,3.37,2.09,6.42,6.11,6.54.03,0,.06,0,.09,0,3.98,0,8.94-4.01,12.25-7.18-.1.54-.17,1.09-.19,1.63-.1,2.72,1.91,6.42,4.93,6.47.02,0,.05,0,.07,0,4.83,0,10-8.09,11.24-11.95.56-1.77.42-4.08.42-4.08.81.42,1.74.59,2.71.59,1.69,0,3.53-.5,5.23-1-.49,1-5.1,12.28-4.55,14.54.14.65.45.8.83.8.07,0,.14,0,.22-.01,1.08-.04,13.03-15.2,17.84-17.43.38-.18.72-.28,1-.28.06,0,.11,0,.16.01.1.02.09.11,0,.27-.6,1.19-5.61,6.24-5.85,11.77-.18,3.65,1.14,5.92,3.72,5.92.01,0,.02,0,.03,0,2.82,0,6.85-3.54,9.69-6.47-1.58,3.41-2.77,6.12-3.37,7.45-.22.06-.36.09-.48.09-.19,0-.33-.06-.7-.1-.64-.54-.87-.84-1.7-.85,0,0-.01,0-.02,0-.58,0-.94.52-.95,1.11-.02,1.06,1.64,1.03,2.69,1.99-.97,1.4-8.12,20.28-2.98,20.48.06,0,.11,0,.17,0,4.85,0,7.18-8.4,7.19-12.55-.03-2.19-.4-4.38-1.5-6.29.49-1.24.98-2.23,1.53-3.29,1.37-.33,2.67-.73,4.1-1.24,5.06-1.76,10.02-5.41,12.97-8.5.83-.88.84-1.39.55-1.39-.13,0-.32.1-.53.32-3.79,4.08-9.05,7.37-12.8,8.73-2.02.74-2.8.96-3.98,1.24.97-1.76,4.78-10.58,6.23-12.51,2.4-1.97,4.07-3.43,5.94-5.17.27-.26.57-.56.89-.88l.1-.7.11-.8c-1.92,2.05-4.08,4.08-6.48,5.97,1-2.14,4.13-7.84,7.49-13.2.16-.26.32-.52.49-.77.16-.25.32-.51.48-.76,2.19-3.4,4.39-6.49,6.09-8.22.11-.11.21-.21.31-.31.1-.1.21-.2.31-.29.62-.54,1.16-.85,1.57-.85.09,0,.18.02.26.05.7.28.08,2.77-1.77,6.3l-.38,2.71Zm-26.62,30.35c.25,0,.48.04.76.04.11,0,.23,0,.37-.02l-.43.76-.7-.78Zm3.72,11.71c-.85,4.95-3.22,9.36-5.59,9.44,0,0,0,0,0,0-1.29,0,1.74-12.11,4.47-16.91.7.9,1.71,3.93,1.13,7.47Z"/>
    </g>
  </g>
</svg>